[Header]
FileType HTR
DataType HTRS
FileVersion 1
NumSegments 64
NumFrames 3
DataFrameRate 30
EulerRotationOrder ZYX
CalibrationUnits mm
RotationUnits Degrees
GlobalAxisofGravity Y
BoneLengthAxis Y
ScaleFactor 1.0
[SegmentNames&Hierarchy]
Hips	GLOBAL
Spine	Hips
Spine1	Spine
Spine2	Spine1
Neck	Spine2
Head	Neck
LeftEye	Head
RightEye	Head
LeftShoulder	Spine2
LeftArm	LeftShoulder
LeftForeArm	LeftArm
LeftHand	LeftForeArm
LeftHandThumb1	LeftHand
LeftHandThumb2	LeftHandThumb1
LeftHandThumb3	LeftHandThumb2
LeftHandThumb4	LeftHandThumb3
LeftHandIndex1	LeftHand
LeftHandIndex2	LeftHandIndex1
LeftHandIndex3	LeftHandIndex2
LeftHandIndex4	LeftHandIndex3
LeftHandMiddle1	LeftHand
LeftHandMiddle2	LeftHandMiddle1
LeftHandMiddle3	LeftHandMiddle2
LeftHandMiddle4	LeftHandMiddle3
LeftHandRing1	LeftHand
LeftHandRing2	LeftHandRing1
LeftHandRing3	LeftHandRing2
LeftHandRing4	LeftHandRing3
LeftHandPinky1	LeftHand
LeftHandPinky2	LeftHandPinky1
LeftHandPinky3	LeftHandPinky2
LeftHandPinky4	LeftHandPinky3
RightShoulder	Spine2
RightArm	RightShoulder
RightForeArm	RightArm
RightHand	RightForeArm
RightHandPinky1	RightHand
RightHandPinky2	RightHandPinky1
RightHandPinky3	RightHandPinky2
RightHandPinky4	RightHandPinky3
RightHandRing1	RightHand
RightHandRing2	RightHandRing1
RightHandRing3	RightHandRing2
RightHandRing4	RightHandRing3
RightHandMiddle1	RightHand
RightHandMiddle2	RightHandMiddle1
RightHandMiddle3	RightHandMiddle2
RightHandMiddle4	RightHandMiddle3
RightHandIndex1	RightHand
RightHandIndex2	RightHandIndex1
RightHandIndex3	RightHandIndex2
RightHandIndex4	RightHandIndex3
RightHandThumb1	RightHand
RightHandThumb2	RightHandThumb1
RightHandThumb3	RightHandThumb2
RightHandThumb4	RightHandThumb3
LeftUpLeg	Hips
LeftLeg	LeftUpLeg
LeftFoot	LeftLeg
LeftToeBase	LeftFoot
RightUpLeg	Hips
RightLeg	RightUpLeg
RightFoot	RightLeg
RightToeBase	RightFoot
[BasePosition]
Hips	0	0	0	0	0	0	1
Spine	0	0	0	0	0	0	1
Spine1	0	0	0	0	0	0	1
Spine2	0	0	0	0	0	0	1
Neck	0	0	0	0	0	0	1
Head	0	0	0	0	0	0	1
LeftEye	0	0	0	0	0	0	1
RightEye	0	0	0	0	0	0	1
LeftShoulder	0	0	0	0	0	0	1
LeftArm	0	0	0	0	0	0	1
LeftForeArm	0	0	0	0	0	0	1
LeftHand	0	0	0	0	0	0	1
LeftHandThumb1	0	0	0	0	0	0	1
LeftHandThumb2	0	0	0	0	0	0	1
LeftHandThumb3	0	0	0	0	0	0	1
LeftHandThumb4	0	0	0	0	0	0	1
LeftHandIndex1	0	0	0	0	0	0	1
LeftHandIndex2	0	0	0	0	0	0	1
LeftHandIndex3	0	0	0	0	0	0	1
LeftHandIndex4	0	0	0	0	0	0	1
LeftHandMiddle1	0	0	0	0	0	0	1
LeftHandMiddle2	0	0	0	0	0	0	1
LeftHandMiddle3	0	0	0	0	0	0	1
LeftHandMiddle4	0	0	0	0	0	0	1
LeftHandRing1	0	0	0	0	0	0	1
LeftHandRing2	0	0	0	0	0	0	1
LeftHandRing3	0	0	0	0	0	0	1
LeftHandRing4	0	0	0	0	0	0	1
LeftHandPinky1	0	0	0	0	0	0	1
LeftHandPinky2	0	0	0	0	0	0	1
LeftHandPinky3	0	0	0	0	0	0	1
LeftHandPinky4	0	0	0	0	0	0	1
RightShoulder	0	0	0	0	0	0	1
RightArm	0	0	0	0	0	0	1
RightForeArm	0	0	0	0	0	0	1
RightHand	0	0	0	0	0	0	1
RightHandPinky1	0	0	0	0	0	0	1
RightHandPinky2	0	0	0	0	0	0	1
RightHandPinky3	0	0	0	0	0	0	1
RightHandPinky4	0	0	0	0	0	0	1
RightHandRing1	0	0	0	0	0	0	1
RightHandRing2	0	0	0	0	0	0	1
RightHandRing3	0	0	0	0	0	0	1
RightHandRing4	0	0	0	0	0	0	1
RightHandMiddle1	0	0	0	0	0	0	1
RightHandMiddle2	0	0	0	0	0	0	1
RightHandMiddle3	0	0	0	0	0	0	1
RightHandMiddle4	0	0	0	0	0	0	1
RightHandIndex1	0	0	0	0	0	0	1
RightHandIndex2	0	0	0	0	0	0	1
RightHandIndex3	0	0	0	0	0	0	1
RightHandIndex4	0	0	0	0	0	0	1
RightHandThumb1	0	0	0	0	0	0	1
RightHandThumb2	0	0	0	0	0	0	1
RightHandThumb3	0	0	0	0	0	0	1
RightHandThumb4	0	0	0	0	0	0	1
LeftUpLeg	0	0	0	0	0	0	1
LeftLeg	0	0	0	0	0	0	1
LeftFoot	0	0	0	0	0	0	1
LeftToeBase	0	0	0	0	0	0	1
RightUpLeg	0	0	0	0	0	0	1
RightLeg	0	0	0	0	0	0	1
RightFoot	0	0	0	0	0	0	1
RightToeBase	0	0	0	0	0	0	1
[Hips]
21	-1144.251343	975.8317871	22.71579742	-1.884308815	-61.11029434	10.92676544	1.0
22	-1199.967285	961.1868896	23.39749908	-2.733835459	-60.32872009	11.69975853	1.0
23	-1259.604248	949.06073	22.71180153	-1.906609774	-60.42824173	10.1643095	1.0
[Spine]
21	0	101.8159943	1.315000057	5.386057377	1.808730006	-3.358733654	1.0
22	0	101.8159943	1.315000057	5.539209366	1.284048319	-3.205064058	1.0
23	0	101.8159943	1.315000057	5.728774548	1.322990298	-2.144667864	1.0
[Spine1]
21	0	100.8349991	-10.00800037	3.671021223	3.430504799	-1.15701735	1.0
22	0	100.8349991	-10.00800037	3.784970284	3.145600796	-1.174295545	1.0
23	0	100.8349991	-10.00800037	3.972747326	3.047091246	-0.7814974785	1.0
[Spine2]
21	0	91	-13.73399925	3.694173813	3.39979434	-1.153972387	1.0
22	0	91	-13.73399925	3.802571535	3.120740175	-1.170846581	1.0
23	0	91	-13.73399925	3.982833862	3.033637762	-0.7749079466	1.0
[Neck]
21	0	166.7169952	-25.16200066	3.852476597	6.175036907	1.544348001	1.0
22	0	166.7169952	-25.16200066	3.773540735	6.186992645	1.475723505	1.0
23	0	166.7169952	-25.16200066	3.875492334	6.205524921	1.317744732	1.0
[Head]
21	0	96.17900085	16.84999847	-15.09066868	34.78754044	-14.18321419	1.0
22	0	96.17900085	16.84999847	-16.02753258	34.64104843	-15.29144192	1.0
23	0	96.17900085	16.84999847	-16.08758163	34.7222023	-16.0833168	1.0
[LeftEye]
21	30.6760006	64.09500122	92.83599854	0	0	0	1.0
22	30.6760006	64.09500122	92.83599854	0	0	0	1.0
23	30.6760006	64.09500122	92.83599854	0	0	0	1.0
[RightEye]
21	-30.6760006	64.09500122	92.83499908	0	0	0	1.0
22	-30.6760006	64.09500122	92.83499908	0	0	0	1.0
23	-30.6760006	64.09500122	92.83499908	0	0	0	1.0
[LeftShoulder]
21	45.70400238	109.4599991	-26.28000069	0.06223921478	-3.413305283	-9.440464973	1.0
22	45.70400238	109.4599991	-26.28000069	0.04508953169	-4.355523586	-9.562550545	1.0
23	45.70400238	109.4599991	-26.28000069	0.006323824171	-4.924458027	-9.585411072	1.0
[LeftArm]
21	105.923996	-5.24600029	-22.32099915	16.22587013	-12.76933765	-63.26586914	1.0
22	105.923996	-5.24600029	-22.32099915	15.29917526	-13.6988821	-63.26862717	1.0
23	105.923996	-5.24600029	-22.32099915	14.74442101	-14.54753113	-64.10733032	1.0
[LeftForeArm]
21	278.414978	-0.0009999999311	0	-2.904178245e-06	-23.45987892	-0.0002115133248	1.0
22	278.414978	-0.0009999999311	0	-2.558765664e-05	-25.1456604	-0.000204563883	1.0
23	278.414978	-0.0009999999311	0	-1.293038076e-05	-26.79860687	-0.0001991840109	1.0
[LeftHand]
21	283.2879944	0	0	6.261584759	-9.401018143	-3.231776714	1.0
22	283.2879944	0	0	5.718789577	-10.0227766	-2.33356452	1.0
23	283.2879944	0	0	5.802486897	-10.88747597	-1.17689991	1.0
[LeftHandThumb1]
21	24.6609993	-15.75	26.8239994	30.58115005	-20.32058144	11.29641056	1.0
22	24.6609993	-15.75	26.8239994	30.58115005	-20.32058144	11.29641056	1.0
23	24.6609993	-15.75	26.8239994	30.58115005	-20.32058144	11.29641056	1.0
[LeftHandThumb2]
21	32.29800034	-18.64699936	18.64699936	13.952775	19.19605446	-3.580068588	1.0
22	32.29800034	-18.64699936	18.64699936	13.78504467	18.13444519	-3.584401846	1.0
23	32.29800034	-18.64699936	18.64699936	13.03081322	16.91085625	-3.244420052	1.0
[LeftHandThumb3]
21	26.52600098	-15.31499958	15.31499958	-15.25631809	7.76510334	10.11435604	1.0
22	26.52600098	-15.31499958	15.31499958	-15.25936222	7.757986546	10.11676216	1.0
23	26.52600098	-15.31499958	15.31499958	-15.23053551	7.82572794	10.09629536	1.0
[LeftHandThumb4]
21	19.54599953	-11.28499985	11.28499985	0	0	0	1.0
22	19.54599953	-11.28499985	11.28499985	0	0	0	1.0
23	19.54599953	-11.28499985	11.28499985	0	0	0	1.0
[LeftHandIndex1]
21	91.09299469	-5.170999527	22.60099792	-1.910709262	-5.559336185	-31.12674141	1.0
22	91.09299469	-5.170999527	22.60099792	-1.885302424	-5.53763485	-30.83171654	1.0
23	91.09299469	-5.170999527	22.60099792	-1.740454555	-5.677232742	-29.16453743	1.0
[LeftHandIndex2]
21	36.76399994	0	0	-0.7121329904	2.794703007	-28.58641243	1.0
22	36.76399994	0	0	-0.7121350169	2.794691801	-28.58638191	1.0
23	36.76399994	0	0	-0.7141771317	2.798447609	-28.62837029	1.0
[LeftHandIndex3]
21	28.83100128	0	0	-0.2920339406	1.82415247	-18.19025803	1.0
22	28.83100128	0	0	-0.292047888	1.824160695	-18.19022942	1.0
23	28.83100128	0	0	-0.2933992445	1.828245878	-18.23258209	1.0
[LeftHandIndex4]
21	23.92700005	0	0	0	0	0	1.0
22	23.92700005	0	0	0	0	0	1.0
23	23.92700005	0	0	0	0	0	1.0
[LeftHandMiddle1]
21	95.33399963	0	0	-2.813587904	2.3013556	-39.88970184	1.0
22	95.33399963	0	0	-2.776390791	2.321057796	-39.50676346	1.0
23	95.33399963	0	0	-2.70623374	2.224557161	-38.78412628	1.0
[LeftHandMiddle2]
21	36.98199844	0	0	-0.562318027	2.500526905	-25.34397888	1.0
22	36.98199844	0	0	-0.5611240268	2.498022318	-25.3165741	1.0
23	36.98199844	0	0	-0.5581240654	2.491662502	-25.24757195	1.0
[LeftHandMiddle3]
21	29.50900078	0	0	-0.3936321139	2.108191729	-21.15056419	1.0
22	29.50900078	0	0	-0.3926185369	2.105550051	-21.1228981	1.0
23	29.50900078	0	0	-0.3900607228	2.098903656	-21.0531292	1.0
[LeftHandMiddle4]
21	28.3390007	0	0	0	0	0	1.0
22	28.3390007	0	0	0	0	0	1.0
23	28.3390007	0	0	0	0	0	1.0
[LeftHandRing1]
21	91.04499817	-0.4390000105	-18.65100098	-2.550189972	2.373158932	-37.14529037	1.0
22	91.04499817	-0.4390000105	-18.65100098	-2.527770042	2.36866951	-36.9087944	1.0
23	91.04499817	-0.4390000105	-18.65100098	-2.438980103	2.586573124	-35.95487595	1.0
[LeftHandRing2]
21	31.54000092	0	0	-0.8643400669	3.057161331	-31.56741142	1.0
22	31.54000092	0	0	-0.8593681455	3.049073696	-31.47423553	1.0
23	31.54000092	0	0	-0.8591650724	3.048724174	-31.4703064	1.0
[LeftHandRing3]
21	29.37700081	0	0	-0.9611614347	3.209200621	-33.33877182	1.0
22	29.37700081	0	0	-0.9558789134	3.201168776	-33.2442627	1.0
23	29.37700081	0	0	-0.9556843638	3.200880051	-33.24098969	1.0
[LeftHandRing4]
21	26.47500038	0	0	0	0	0	1.0
22	26.47500038	0	0	0	0	0	1.0
23	26.47500038	0	0	0	0	0	1.0
[LeftHandPinky1]
21	80.77799988	-4.887000084	-38.06099701	-2.03995347	0.7587175965	-31.48626328	1.0
22	80.77799988	-4.887000084	-38.06099701	-2.026857138	1.055252671	-31.322155	1.0
23	80.77799988	-4.887000084	-38.06099701	-2.008780956	1.579777122	-31.0917778	1.0
[LeftHandPinky2]
21	36	0	0	-0.4945606291	2.352315903	-23.74385262	1.0
22	36	0	0	-0.4988026321	2.361929893	-23.84697342	1.0
23	36	0	0	-0.4913938046	2.345015287	-23.66579056	1.0
[LeftHandPinky3]
21	21.14200211	0	0	-0.5628316998	2.501616716	-25.3556385	1.0
22	21.14200211	0	0	-0.565597415	2.507459164	-25.41916656	1.0
23	21.14200211	0	0	-0.5616722107	2.499172449	-25.32919312	1.0
[LeftHandPinky4]
21	19.75699997	0	0	0	0	0	1.0
22	19.75699997	0	0	0	0	0	1.0
23	19.75699997	0	0	0	0	0	1.0
[RightShoulder]
21	-45.70000076	109.4620056	-26.28000069	2.369298935	4.636675358	9.886868477	1.0
22	-45.70000076	109.4620056	-26.28000069	2.385550261	3.986007929	9.731449127	1.0
23	-45.70000076	109.4620056	-26.28000069	2.366579056	3.441426039	9.659047127	1.0
[RightArm]
21	-105.9280014	-5.248000145	-22.32099915	26.11680412	3.986799002	56.669384	1.0
22	-105.9280014	-5.248000145	-22.32099915	24.60850525	2.765990973	58.83760834	1.0
23	-105.9280014	-5.248000145	-22.32099915	22.9466095	2.332527637	61.22123718	1.0
[RightForeArm]
21	-278.414978	0	0	-2.835602345e-06	22.94291687	4.155627266e-06	1.0
22	-278.414978	0	0	-5.174977105e-07	19.91693497	3.000180186e-06	1.0
23	-278.414978	0	0	9.316343608e-07	15.86442852	4.338463896e-06	1.0
[RightHand]
21	-283.2879944	0	0.0009999999311	-2.687556982	3.262076378	-2.406018496	1.0
22	-283.2879944	0	0.0009999999311	-1.551623583	3.131536007	-2.058347702	1.0
23	-283.2879944	0	0.0009999999311	-0.783035934	2.13167572	-2.019655943	1.0
[RightHandPinky1]
21	-80.76699829	-4.885000229	-38.06000137	-2.204053879	-3.776670933	36.20185471	1.0
22	-80.76699829	-4.885000229	-38.06000137	-2.243957996	-3.723857164	36.69859314	1.0
23	-80.76699829	-4.885000229	-38.06000137	-2.274947405	-3.778110743	37.08213806	1.0
[RightHandPinky2]
21	-36	0	0.0009999999311	-0.3925787508	-1.867591023	23.7596302	1.0
22	-36	0	0.0009999999311	-0.388218224	-1.857654333	23.62553215	1.0
23	-36	0	0.0009999999311	-0.3859289587	-1.852417231	23.55493164	1.0
[RightHandPinky3]
21	-21.14200211	0	0	-0.1708846688	-1.247601986	15.59797382	1.0
22	-21.14200211	0	0	-0.1678626537	-1.236707449	15.45833492	1.0
23	-21.14200211	0	0	-0.1662735641	-1.2309618	15.38464642	1.0
[RightHandPinky4]
21	-19.75699997	0	0	0	0	0	1.0
22	-19.75699997	0	0	0	0	0	1.0
23	-19.75699997	0	0	0	0	0	1.0
[RightHandRing1]
21	-91.03599548	-0.4390000105	-18.65100098	-1.965415478	-6.717285633	33.24269485	1.0
22	-91.03599548	-0.4390000105	-18.65100098	-2.036464691	-6.921905994	34.1520462	1.0
23	-91.03599548	-0.4390000105	-18.65100098	-2.083598852	-7.102187634	34.752491	1.0
[RightHandRing2]
21	-31.54000092	0	0	-0.3733575046	-1.823292375	23.14321136	1.0
22	-31.54000092	0	0	-0.371299088	-1.818471193	23.07844734	1.0
23	-31.54000092	0	0	-0.3699916899	-1.815404773	23.03724861	1.0
[RightHandRing3]
21	-29.37700081	0	0	-0.2683434784	-1.554925084	19.58171463	1.0
22	-29.37700081	0	0	-0.2665385306	-1.549849153	19.51507568	1.0
23	-29.37700081	0	0	-0.2653829157	-1.546589255	19.47231102	1.0
[RightHandRing4]
21	-26.47500038	0	0	0	0	0	1.0
22	-26.47500038	0	0	0	0	0	1.0
23	-26.47500038	0	0	0	0	0	1.0
[RightHandMiddle1]
21	-95.32500458	0	0	-1.835169315	-3.241159678	31.539814	1.0
22	-95.32500458	0	0	-1.905346513	-3.715425253	32.44601822	1.0
23	-95.32500458	0	0	-1.951731563	-4.091555595	33.04160309	1.0
[RightHandMiddle2]
21	-36.98199844	0	0	-0.2407830805	-1.47518611	18.53930664	1.0
22	-36.98199844	0	0	-0.2415675521	-1.477513671	18.56966591	1.0
23	-36.98199844	0	0	-0.2420169562	-1.47883749	18.58692551	1.0
[RightHandMiddle3]
21	-29.50900078	0	0	-0.08657515049	-0.8941722512	11.08488369	1.0
22	-29.50900078	0	0	-0.08704424649	-0.8965717554	11.1151123	1.0
23	-29.50900078	0	0	-0.08731157333	-0.8979356885	11.13224983	1.0
[RightHandMiddle4]
21	-28.3390007	0	0.0009999999311	0	0	0	1.0
22	-28.3390007	0	0.0009999999311	0	0	0	1.0
23	-28.3390007	0	0.0009999999311	0	0	0	1.0
[RightHandIndex1]
21	-91.08300018	-5.167999744	22.60099792	-1.333017826	1.011544585	26.00965118	1.0
22	-91.08300018	-5.167999744	22.60099792	-1.29957819	-0.0264432542	27.38298225	1.0
23	-91.08300018	-5.167999744	22.60099792	-1.260082483	-0.7838687897	28.2418499	1.0
[RightHandIndex2]
21	-36.76399994	0	0	-0.1027035117	-0.9708625674	12.07723808	1.0
22	-36.76399994	0	0	-0.1029883698	-0.972194612	12.09397411	1.0
23	-36.76399994	0	0	-0.1031563804	-0.972958982	12.1036377	1.0
[RightHandIndex3]
21	-28.83100128	0	0	-0.106855616	-0.9900513291	12.31964111	1.0
22	-28.83100128	0	0	-0.107143864	-0.9913817048	12.3364687	1.0
23	-28.83100128	0	0	-0.1073122546	-0.9921532273	12.34618282	1.0
[RightHandIndex4]
21	-23.92700005	0	0	0	0	0	1.0
22	-23.92700005	0	0	0	0	0	1.0
23	-23.92700005	0	0	0	0	0	1.0
[RightHandThumb1]
21	-24.64799881	-15.72700024	26.82600021	-0.1902875453	0.8218618631	0.3671384752	1.0
22	-24.64799881	-15.72700024	26.82600021	-0.1902875453	0.8218618631	0.3671384752	1.0
23	-24.64799881	-15.72700024	26.82600021	-0.1902875453	0.8218618631	0.3671384752	1.0
[RightHandThumb2]
21	-32.29800034	-18.64699936	18.64699936	17.35350227	-1.95435071	-17.98694611	1.0
22	-32.29800034	-18.64699936	18.64699936	17.66555977	-2.465147257	-17.7633667	1.0
23	-32.29800034	-18.64699936	18.64699936	17.83008385	-3.316874981	-17.84498024	1.0
[RightHandThumb3]
21	-26.52600098	-15.31399918	15.31399918	-0.1789256781	8.002579689	-23.90542603	1.0
22	-26.52600098	-15.31399918	15.31399918	-0.8611554503	9.581289291	-24.38758469	1.0
23	-26.52600098	-15.31399918	15.31399918	-1.462287188	10.95598984	-24.9411087	1.0
[RightHandThumb4]
21	-19.54599953	-11.28499985	11.28499985	0	0	0	1.0
22	-19.54599953	-11.28499985	11.28499985	0	0	0	1.0
23	-19.54599953	-11.28499985	11.28499985	0	0	0	1.0
[LeftUpLeg]
21	82.07800293	-67.51699829	-15.99599934	-5.720565796	10.81534481	4.594387054	1.0
22	82.07800293	-67.51699829	-15.99599934	-1.129535079	11.00272274	6.743547916	1.0
23	82.07800293	-67.51699829	-15.99599934	2.926733255	11.43420506	10.52257729	1.0
[LeftLeg]
21	0	-443.7049866	2.845999956	21.41510201	-9.119949341	-4.362904072	1.0
22	0	-443.7049866	2.845999956	19.28603172	-9.283085823	-4.12979126	1.0
23	0	-443.7049866	2.845999956	19.05983353	-9.163421631	-4.153008938	1.0
[LeftFoot]
21	0	-444.2789917	-29.8219986	-22.95524406	-12.18488598	-2.065252542	1.0
22	0	-444.2789917	-29.8219986	-25.85454559	-13.30311012	-1.911091685	1.0
23	0	-444.2789917	-29.8219986	-25.02560616	-14.48384094	-2.328759193	1.0
[LeftToeBase]
21	0	-87.28699493	107.1060028	-5.79868269	1.501510997e-05	-2.331603355e-06	1.0
22	0	-87.28699493	107.1060028	-6.748120785	-1.229058671e-05	1.882865263e-06	1.0
23	0	-87.28699493	107.1060028	-8.527199745	0.05282130837	0.1530684233	1.0
[RightUpLeg]
21	-82.07800293	-67.51699829	-15.99599934	-40.64926529	-15.60192966	-13.23012924	1.0
22	-82.07800293	-67.51699829	-15.99599934	-40.98072815	-16.85263062	-13.36822987	1.0
23	-82.07800293	-67.51699829	-15.99599934	-41.93642426	-16.22301483	-11.06174278	1.0
[RightLeg]
21	0	-443.7049866	2.861999989	8.632079124	-1.146889925	-0.1156343892	1.0
22	0	-443.7049866	2.861999989	8.072158813	-3.143208981	-0.1854142845	1.0
23	0	-443.7049866	2.861999989	13.23972511	-1.887179852	-0.2349544019	1.0
[RightFoot]
21	0	-444.2770081	-29.83799934	-11.7559185	0.8423751593	7.384786129	1.0
22	0	-444.2770081	-29.83799934	-12.53980446	0.8177118897	10.14600945	1.0
23	0	-444.2770081	-29.83799934	-7.268644333	0.1536464393	8.498425484	1.0
[RightToeBase]
21	0	-87.28699493	107.1060028	-7.639722824	3.145826213e-06	1.204044747e-05	1.0
22	0	-87.28699493	107.1060028	-6.910479069	6.84564975e-06	1.062616502e-05	1.0
23	0	-87.28699493	107.1060028	-8.855446815	-1.444386089e-05	2.675393716e-06	1.0
[EndOfFile]
